HIERARCHY
ROOT RootJoint
{
    OFFSET   0.000000   0.000000   0.000000
    CHANNELS 6 Xposition Yposition Zposition Xrotation Yrotation Zrotation
    JOINT pelvis_lowerback
    {
        OFFSET   0.000000   0.093605   0.000000
        CHANNELS 3 Xrotation Yrotation Zrotation
        JOINT lowerback_torso
        {
            OFFSET   0.000000   0.100000   0.000000
            CHANNELS 3 Xrotation Yrotation Zrotation
            JOINT torso_head
            {
                OFFSET   0.000000   0.282350   0.000000
                CHANNELS 3 Xrotation Yrotation Zrotation
                End Site
                {
                    OFFSET   0.000000   0.192650   0.000000
                }
            }
            JOINT rTorso_Clavicle
            {
                OFFSET  -0.001000   0.157500   0.000000
                CHANNELS 3 Xrotation Yrotation Zrotation
                JOINT rShoulder
                {
                    OFFSET  -0.117647   0.000000   0.000000
                    CHANNELS 3 Xrotation Yrotation Zrotation
                    JOINT rElbow
                    {
                        OFFSET  -0.245000   0.000000   0.000000
                        CHANNELS 3 Xrotation Yrotation Zrotation
                        JOINT rWrist
                        {
                            OFFSET  -0.240000   0.000000   0.000000
                            CHANNELS 3 Xrotation Yrotation Zrotation
                            End Site
                            {
                                OFFSET  -0.116353  -0.002500   0.000000
                            }
                        }
                    }
                }
            }
            JOINT lTorso_Clavicle
            {
                OFFSET   0.001000   0.157500   0.000000
                CHANNELS 3 Xrotation Yrotation Zrotation
                JOINT lShoulder
                {
                    OFFSET   0.117647   0.000000   0.000000
                    CHANNELS 3 Xrotation Yrotation Zrotation
                    JOINT lElbow
                    {
                        OFFSET   0.245000   0.000000   0.000000
                        CHANNELS 3 Xrotation Yrotation Zrotation
                        JOINT lWrist
                        {
                            OFFSET   0.240000   0.000000   0.000000
                            CHANNELS 3 Xrotation Yrotation Zrotation
                            End Site
                            {
                                OFFSET   0.116353  -0.002500   0.000000
                            }
                        }
                    }
                }
            }
        }
    }
    JOINT rHip
    {
        OFFSET  -0.100000  -0.051395   0.000000
        CHANNELS 3 Xrotation Yrotation Zrotation
        JOINT rKnee
        {
            OFFSET   0.000000  -0.410000   0.000000
            CHANNELS 3 Xrotation Yrotation Zrotation
            JOINT rAnkle
            {
                OFFSET   0.000000  -0.390000   0.000000
                CHANNELS 3 Xrotation Yrotation Zrotation
                JOINT rToeJoint
                {
                    OFFSET   0.000000  -0.050000   0.130000
                    CHANNELS 3 Xrotation Yrotation Zrotation
                    End Site
                    {
                        OFFSET  -0.010000   0.002000   0.060000
                    }
                }
            }
        }
    }
    JOINT lHip
    {
        OFFSET   0.100000  -0.051395   0.000000
        CHANNELS 3 Xrotation Yrotation Zrotation
        JOINT lKnee
        {
            OFFSET   0.000000  -0.410000   0.000000
            CHANNELS 3 Xrotation Yrotation Zrotation
            JOINT lAnkle
            {
                OFFSET   0.000000  -0.390000   0.000000
                CHANNELS 3 Xrotation Yrotation Zrotation
                JOINT lToeJoint
                {
                    OFFSET   0.000000  -0.050000   0.130000
                    CHANNELS 3 Xrotation Yrotation Zrotation
                    End Site
                    {
                        OFFSET   0.010000   0.002000   0.060000
                    }
                }
            }
        }
    }
}
MOTION
Frames: 11
Frame Time:   0.008333
 -2.446477   0.926221   4.152605  24.612640 -28.212657   3.476761  -1.468339   2.410642   0.630686  15.288051  -2.569453   2.168183  -3.714878   4.451851  -3.179019   5.419264  14.493804  11.385893  -8.503844  25.148292  20.966046   0.084430  27.092248  -0.019493   1.225366  -3.918937  -5.119725   1.947849 -17.356724  -5.292458 -16.336151 -29.388673 -23.436700   0.058940 -32.941698   0.007261  -3.337228   0.898953   5.745416 -61.492594  -5.510361  -2.981541  45.005650  -0.000055   0.000628  -9.954837  -0.316414   5.389123   1.272994  -0.001186   0.001133 -56.812301   5.659429   6.199728  47.375336  -0.000965   0.003388  -5.661492   5.946633  -0.954539   4.724168   0.008021   0.005830
 -2.447893   0.915610   4.156441  23.452169 -28.172354   2.852344  -1.023553   2.484088   0.502363  15.750190  -2.394861   2.309309  -4.084105   4.443604  -3.171355   5.352201  15.669009  12.095648  -9.774491  26.522244  21.635339   0.075260  28.227086  -0.013438   0.935808  -4.312097  -3.364622   1.885482 -18.838518  -5.524685 -17.339742 -31.387096 -24.043917   0.051906 -33.727290   0.006825  -3.505155   1.864862   3.927798 -60.740269  -5.765795  -3.447713  45.072866   0.000055   0.000275  -9.623431  -0.393927   5.469025   1.477471  -0.000694   0.000113 -56.102843   5.693725   5.968950  48.220044   0.001381   0.002413  -7.920386   5.776634  -0.458968   4.635922   0.006464   0.004800
 -2.449051   0.903831   4.159819  22.420273 -28.028297   2.282049  -0.599931   2.507707   0.373671  16.042377  -2.289606   2.448472  -4.326617   4.433524  -3.154326   5.023706  16.850435  12.427865 -11.107349  27.925447  21.998572   0.058647  29.359459  -0.007965   0.693533  -4.390437  -2.218804   1.508798 -20.404635  -5.437306 -18.502764 -33.464793 -24.414214   0.040029 -34.561222   0.006018  -3.592353   2.383643   2.575845 -60.045689  -6.013586  -3.929027  45.082355   0.000058   0.000194  -9.310537  -0.466549   5.544480   1.699852  -0.000288  -0.000614 -55.536604   5.783025   5.665807  49.145233   0.004174   0.002084 -10.046827   5.595528  -0.005991   4.397032   0.005051   0.004075
 -2.450242   0.890972   4.163201  21.546619 -27.860378   1.778575  -0.294289   2.500547   0.246530  16.123957  -2.230829   2.565424  -4.518384   4.423566  -3.138433   4.552348  18.016613  12.549651 -12.445523  29.309668  22.204746   0.038987  30.451011  -0.002485   0.492678  -4.252688  -1.568671   0.964800 -21.984691  -5.195966 -19.740338 -35.521956 -24.679124   0.025955 -35.391115   0.004496  -3.627032   2.532395   1.673296 -59.390425  -6.247814  -4.360804  45.072580   0.000032   0.000177  -9.019904  -0.533826   5.615516   1.899834  -0.000009  -0.001038 -55.024497   5.887148   5.348075  50.031357   0.006421   0.001797 -12.030540   5.411023   0.409359   4.166271   0.003860   0.003438
 -2.451602   0.877086   4.166828  20.814855 -27.697011   1.336463  -0.134473   2.469017   0.117407  16.014656  -2.207884   2.657087  -4.690489   4.414124  -3.125008   4.004541  19.145340  12.552892 -13.763150  30.650117  22.329666   0.019023  31.491203   0.002941   0.316670  -3.987129  -1.248816   0.334305 -23.537942  -4.885785 -21.010026 -37.514988 -24.905172   0.011626 -36.197023   0.002469  -3.636217   2.449173   1.087725 -58.745296  -6.474713  -4.733097  45.064545   0.000015   0.000157  -8.749206  -0.595924   5.682474   2.080424   0.000174  -0.001286 -54.517492   5.994229   5.034032  50.867099   0.007991   0.001427 -13.880516   5.226288   0.790905   3.952512   0.002911   0.002907
 -2.453191   0.862223   4.170815  20.206247 -27.549645   0.949620  -0.121374   2.418077  -0.015475  15.744090  -2.214088   2.724370  -4.855140   4.405317  -3.114208   3.420321  20.222866  12.486750 -15.045252  31.933066  22.413000   0.000368  32.476078   0.008006   0.157519  -3.648292  -1.147581  -0.336254 -25.041132  -4.549549 -22.287822 -39.422628 -25.126097  -0.001766 -36.969986   0.000287  -3.632935   2.223769   0.718461 -58.093661  -6.696903  -5.049167  45.066971   0.000015   0.000122  -8.496380  -0.653224   5.745551   2.245970   0.000293  -0.001432 -53.993277   6.100367   4.729258  51.657471   0.008970   0.000981 -15.605216   5.043457   1.141636   3.758037   0.002178   0.002478
 -2.455024   0.846432   4.175207  19.705329 -27.423401   0.613071  -0.244118   2.352379  -0.152179  15.340523  -2.243829   2.769405  -5.016748   4.397163  -3.105860   2.823675  21.241154  12.377985 -16.283321  33.151220  22.474976  -0.016117  33.404769   0.012430   0.011633  -3.269947  -1.195669  -1.020388 -26.480189  -4.208667 -23.559753 -41.234588 -25.357707  -0.013576 -37.706189  -0.001750  -3.623038   1.910139   0.500563 -57.428940  -6.914998  -5.315156  45.082414   0.000031   0.000071  -8.259824  -0.706132   5.804902   2.399581   0.000370  -0.001516 -53.444156   6.203907   4.435185  52.407419   0.009478   0.000488 -17.212757   4.864023   1.464131   3.583129   0.001619   0.002134
 -2.456364   0.829781   4.178730  19.522899 -27.504610   0.259659  -0.244996   2.458813  -0.063870  14.684317  -2.339323   2.835131  -4.923918   4.345717  -3.074830   2.226574  22.039777  11.733023 -19.115989  33.931355  22.414020  -0.064904  34.806827   0.037258  -0.128663  -3.161477   0.378492  -1.530395 -27.640023  -3.102870 -26.397617 -42.891821 -25.735405  -0.036699 -38.559761  -0.007309  -3.778405   1.905963  -0.821413 -56.981593  -6.989422  -5.287593  44.665382  -0.000878   0.000278  -7.812721  -1.051505   5.884409   2.583367   0.000550  -0.001863 -52.636184   6.123548   4.490159  51.490165   0.006861   0.000999 -17.046371   4.518100   1.354132   3.115051   0.000478   0.003302
 -2.456508   0.820333   4.179544  19.462409 -26.442689   0.786088   0.571173   2.225397  -0.681324  14.127048  -2.708770   2.678980  -4.876931   4.273775  -3.050331   1.303356  22.755119  10.974698 -22.068799  34.671323  21.944505  -0.095663  36.080731   0.046118  -0.240847  -3.087670   0.719742  -2.465735 -28.886314  -1.943017 -29.513746 -44.607749 -25.875447  -0.055639 -39.360766  -0.013944  -3.878281   1.671303  -1.254033 -56.498241  -6.828859  -6.306926  43.829065  -0.001841  -0.002120  -7.390767  -1.391645   5.950423   2.849198   0.000550  -0.001539 -54.166405   6.324128   3.460732  54.645622   0.017063   0.008282 -18.889652   4.070742   2.119232   2.545605   0.002545   0.002687
 -2.456966   0.814821   4.180344  19.585657 -25.605793   1.376191   1.279972   2.199948  -1.124745  13.650660  -2.974960   2.411316  -4.686791   4.214917  -3.061511   0.376262  23.342228  10.051097 -24.971392  35.403301  21.347737  -0.117616  37.273334   0.050761  -0.321289  -3.029188   0.743094  -3.392252 -29.969937  -0.781093 -32.704197 -46.280800 -26.064147  -0.069941 -40.131622  -0.018678  -3.966951   1.363034  -1.335222 -55.971399  -6.724252  -6.906598  43.044378  -0.000902  -0.004217  -7.004902  -1.705465   6.016318   3.059293   0.000109  -0.001211 -55.101554   6.662741   2.636419  56.365522   0.018652   0.010665 -20.031143   3.635228   2.459660   2.145440   0.002456   0.002260
 -2.457904   0.812099   4.181421  19.923798 -24.869380   1.957791   1.804866   2.211503  -1.419958  13.080529  -3.181672   2.154822  -4.454872   4.162719  -3.068931  -0.547554  23.841301   9.051150 -27.715500  36.112174  20.720618  -0.133155  38.391712   0.053978  -0.386583  -2.963837   0.583469  -4.295378 -30.911826   0.362782 -35.789028 -47.817926 -26.301557  -0.079532 -40.860528  -0.020974  -4.046283   1.040653  -1.241732 -55.468911  -6.704693  -7.202774  42.385281   0.000519  -0.005896  -6.647136  -1.994781   6.083668   3.228157  -0.000357  -0.000862 -55.749882   6.976728   1.978330  57.199084   0.016822   0.010682 -20.721522   3.203170   2.611665   1.843085   0.002025   0.001891
